<svg xmlns="http://www.w3.org/2000/svg" fill="#2f73f2" viewBox="0 0 24 24"><defs><style>.cls-1{opacity:0.3;}</style></defs><g id="Design_Art_and_Photos" data-name="Design, Art and Photos"><g id="art001-010"><g id="art007"><path class="cls-1" d="M20.86,12.47l-3.12,1-7.35,7.35a1.05,1.05,0,0,1-1.47,0L2.3,14.2a1.05,1.05,0,0,1,0-1.47l9.56-9.55a1.05,1.05,0,0,1,1.47,0l7.87,7.88A.85.85,0,0,1,20.86,12.47Z"/><path d="M14.8,10.06h-.17L5.81,8.58a1,1,0,0,1,.33-2L15,8.07a1,1,0,0,1-.16,2ZM17,18.5a2.5,2.5,0,1,0,4.36-1.67l-1.52-1.7a.46.46,0,0,0-.68,0l-1.52,1.7A2.5,2.5,0,0,0,17,18.5Zm-6.61,2.32,7.35-7.35H2a1,1,0,0,0,.3.73l6.62,6.62A1.05,1.05,0,0,0,10.39,20.82Z"/></g></g></g></svg>