<svg xmlns="http://www.w3.org/2000/svg" fill="#2f73f2" viewBox="0 0 24 24"><defs><style>.cls-1{opacity:0.3;}</style></defs><g id="Finance"><g id="fin001-010"><g id="fin006"><path class="cls-1" d="M20,15H4a2,2,0,0,1-2-2V7A1,1,0,0,1,3,6H21a1,1,0,0,1,1,1v6A2,2,0,0,1,20,15Zm-7-3H11a1,1,0,0,0-1,1v3a1,1,0,0,0,1,1l2,0a1,1,0,0,0,1-1l0-3A1,1,0,0,0,13,12Z"/><path d="M14,6V5H10V6H8V5a2,2,0,0,1,2-2h4a2,2,0,0,1,2,2V6Zm6,9H14v1a1,1,0,0,1-1,1l-2,0a1,1,0,0,1-1-1l0-1H4a2,2,0,0,1-1-.28V18a2,2,0,0,0,2,2H19a2,2,0,0,0,2-2V14.72A2,2,0,0,1,20,15Z"/></g></g></g></svg>