<svg xmlns="http://www.w3.org/2000/svg" fill="#2f73f2" viewBox="0 0 24 24"><defs><style>.cls-1{opacity:0.3;}</style></defs><g id="Layout"><g id="lay001-010"><g id="lay001"><rect x="1.88" y="2.18" width="9" height="5" rx="1"/><g class="cls-1"><path d="M10,22H3a1,1,0,0,1-1-1V10A1,1,0,0,1,3,9h7c.55,0,1,.45,1,0V20C11,21.55,10.55,22,10,22Zm3-4v3a1,1,0,0,0,1,1h7a1,1,0,0,0,1-1V18a1,1,0,0,0-1-1H14A1,1,0,0,0,13,18ZM21,2H14a1,1,0,0,0-1,1V14a1,1,0,0,0,1,1h7a1,1,0,0,0,1-1V3A1,1,0,0,0,21,2Z"/></g></g></g></g></svg>